<?xml version="1.0" encoding="UTF-8" standalone="no"?>
<!-- Created with Inkscape (http://www.inkscape.org/) -->

<svg
   width="109.72849mm"
   height="42.877949mm"
   viewBox="0 0 109.72848 42.877949"
   version="1.1"
   id="svg1232"
   xmlns="http://www.w3.org/2000/svg"
   xmlns:svg="http://www.w3.org/2000/svg">
  <defs
     id="defs1229" />
  <g
     aria-label="Genius"
     transform="matrix(0.50026083,0,0,0.50026083,-949.85337,-798.29011)"
     id="text9751-2"
     style="font-size:96px;font-family:'Bebas Neue';-inkscape-font-specification:'Bebas Neue, Normal';vector-effect:non-scaling-stroke;fill:#151515;stroke-linecap:round;stroke-linejoin:round;-inkscape-stroke:hairline">
    <path
       id="path6281"
       style="color:#000000;-inkscape-font-specification:'Bebas Neue, Normal';fill:#ff8200;stroke-width:18.5112;stroke-linecap:square;stroke-linejoin:miter;-inkscape-stroke:none"
       d="m 1898.7172,1595.7478 v 76.4557 9.2556 h 219.341 v -85.7113 z" />
    <path
       d="m 2092.8672,1673.1634 q -7.68,0 -11.616,-4.32 -3.936,-4.416 -3.936,-12.576 v -3.84 h 9.984 v 4.608 q 0,6.528 5.472,6.528 2.688,0 4.032,-1.536 1.44,-1.632 1.44,-5.184 0,-4.224 -1.92,-7.392 -1.92,-3.264 -7.104,-7.776 -6.528,-5.76 -9.12,-10.368 -2.592,-4.704 -2.592,-10.56 0,-7.968 4.032,-12.288 4.032,-4.416 11.712,-4.416 7.584,0 11.424,4.416 3.936,4.32 3.936,12.48 v 2.784 h -9.984 v -3.456 q 0,-3.456 -1.344,-4.992 -1.344,-1.632 -3.936,-1.632 -5.28,0 -5.28,6.432 0,3.648 1.92,6.816 2.016,3.168 7.2,7.68 6.624,5.76 9.12,10.464 2.496,4.704 2.496,11.04 0,8.256 -4.128,12.672 -4.032,4.416 -11.808,4.416 z"
       id="path1407" />
    <path
       d="m 2055.9074,1673.1634 q -7.68,0 -11.712,-4.32 -4.032,-4.416 -4.032,-12.576 v -51.264 h 10.56 v 52.032 q 0,3.456 1.344,4.992 1.44,1.536 4.032,1.536 2.592,0 3.936,-1.536 1.44,-1.536 1.44,-4.992 v -52.032 h 10.176 v 51.264 q 0,8.16 -4.032,12.576 -4.032,4.32 -11.712,4.32 z"
       id="path1405" />
    <path
       d="m 2022.1154,1605.0034 h 10.56 v 67.2 h -10.56 z"
       id="path1403" />
    <path
       d="m 1981.1236,1605.0034 h 13.248 l 10.272,40.224 h 0.192 v -40.224 h 9.408 v 67.2 h -10.848 l -12.672,-49.056 h -0.192 v 49.056 h -9.408 z"
       id="path1401" />
    <path
       d="m 1946.2757,1605.0034 h 28.8 v 9.6 h -18.24 v 17.76 h 14.496 v 9.6 h -14.496 v 20.64 h 18.24 v 9.6 h -28.8 z"
       id="path1399" />
    <path
       d="m 1923.7158,1673.1634 q -7.68,0 -11.712,-4.32 -4.032,-4.416 -4.032,-12.576 v -35.328 q 0,-8.16 4.032,-12.48 4.032,-4.416 11.712,-4.416 7.68,0 11.712,4.416 4.032,4.32 4.032,12.48 v 5.76 h -9.984 v -6.432 q 0,-6.624 -5.472,-6.624 -5.472,0 -5.472,6.624 v 36.768 q 0,6.528 5.472,6.528 5.472,0 5.472,-6.528 v -13.152 h -5.28 v -9.6 h 15.264 v 21.984 q 0,8.16 -4.032,12.576 -4.032,4.32 -11.712,4.32 z"
       id="path1397" />
  </g>
</svg>
