<?xml version="1.0" encoding="UTF-8" standalone="no"?>
<!-- Created with Inkscape (http://www.inkscape.org/) -->

<svg
   width="121.71164mm"
   height="202.92886mm"
   viewBox="0 0 121.71164 202.92886"
   version="1.1"
   id="svg1279"
   xml:space="preserve"
   xmlns="http://www.w3.org/2000/svg"
   xmlns:svg="http://www.w3.org/2000/svg"><defs
     id="defs1276" />
	 <g
     id="layer11"
     transform="translate(-40.432585,-46.994893)">
	 <g
       id="g14502"
       transform="translate(174.62505)"
       style="display:inline">
	   <path
         id="path14504"
         style="vector-effect:non-scaling-stroke;fill:#ffffff;stroke:#151515;stroke-width:1.60267;stroke-linecap:round;stroke-linejoin:round;stroke-dasharray:none;-inkscape-stroke:hairline;paint-order:stroke fill markers;stop-color:#151515"
         d="m -69.624838,71.037181 a 52.500903,50.383572 0 0 0 -52.500212,50.381019 52.500903,50.383572 0 0 0 0.21262,4.33222 c 0.97772,19.85363 1.81648,36.82927 5.95058,66.14806 1.34406,8.49734 9.84781,20.01106 19.479451,30.4227 6.13241,6.2973 16.364695,16.15142 26.857321,16.39613 10.492684,-0.24471 20.728122,-10.09883 26.860535,-16.39613 9.631632,-10.41164 18.132242,-21.92536 19.476304,-30.4227 4.134093,-29.31879 4.972857,-46.29443 5.950576,-66.14806 a 52.500903,50.383572 0 0 0 0.212614,-4.33222 52.500903,50.383572 0 0 0 -52.500269,-50.381019 z" /></g>
		 <g
       id="layer5"
       style="display:inline;stroke:#ffffff;stroke-width:2.2;stroke-dasharray:none;stroke-opacity:1">
	   <path
         id="path20520"
         style="vector-effect:non-scaling-stroke;fill:#151515;stroke:none;stroke-width:0.264583;stroke-linecap:round;stroke-linejoin:round;stroke-dasharray:none;-inkscape-stroke:hairline;paint-order:stroke fill markers;stop-color:#151515"
         d="m 50.301322,138.2174 c -1.416437,18.41375 -1.335319,30.71544 -1.335319,30.71544 0,0 1.883726,-0.32863 2.670638,0.22221 0,0 -1.36207,19.60617 -0.575158,28.34091 1.022987,10.62331 5.916951,19.95743 5.916951,19.95743 0,0 0.809262,-0.99334 2.225704,-1.78025 4.281515,8.48409 10.154266,16.11936 17.583423,22.9247 0,0 -0.184596,-2.98106 0.444934,-5.34179 8.63027,10.14222 17.877977,15.75852 27.767295,16.66771 9.88932,-0.90919 19.13703,-6.52549 27.7673,-16.66771 0.62953,2.36073 0.44493,5.34179 0.44493,5.34179 7.42916,-6.80534 13.30191,-14.44061 17.58343,-22.9247 1.41645,0.78691 2.2257,1.78025 2.2257,1.78025 0,0 4.89396,-9.33412 5.91695,-19.95743 0.78691,-8.73474 -0.57516,-28.34091 -0.57516,-28.34091 0.78692,-0.55084 2.67064,-0.22221 2.67064,-0.22221 0,0 0.0811,-12.30169 -1.33532,-30.71544 l -5.5795,0.83406 c 0,0 3.24253,17.86233 -0.76378,27.43295 -2.11444,3.89502 -4.89649,3.561 -11.12852,5.78673 -4.7853,2.11444 -7.34532,8.34646 -7.01146,12.0189 0.33386,6.34332 0.11174,13.02051 -7.23315,19.5864 -2.67087,1.89187 -7.23377,4.34045 -11.9078,2.67116 -4.09266,-1.60718 -4.95351,-2.33699 -11.07426,-2.2257 -6.120743,-0.11129 -6.981591,0.61852 -11.074257,2.2257 -4.674025,1.66929 -9.236416,-0.77929 -11.907283,-2.67116 -7.344893,-6.56589 -7.567527,-13.24308 -7.233667,-19.5864 0.333859,-3.67244 -2.225637,-9.90446 -7.010942,-12.0189 -6.232034,-2.22573 -9.014599,-1.89171 -11.129037,-5.78673 -4.006306,-9.57062 -0.763777,-27.43295 -0.763777,-27.43295 z" /></g>
		 <g
       id="layer9">
	   <path
         style="vector-effect:non-scaling-stroke;fill:#151515;stroke:none;stroke-width:0.264583;stroke-linecap:round;stroke-linejoin:round;stroke-dasharray:none;-inkscape-stroke:hairline;paint-order:stroke fill markers;stop-color:#151515"
         d="m 94.887987,50.667892 c -0.286651,-2.416108 -1.68086,-2.617102 -2.742879,-3.482474 6.02885,-0.708353 19.656382,0.675352 25.150722,2.225728 7.12619,2.150327 12.37944,4.50531 16.24781,8.23519 0.66745,-1.784036 0.24609,-3.104028 -0.16034,-4.095752 4.30872,1.724572 12.54007,8.364278 15.68485,11.461617 4.02913,4.114172 6.72519,7.681884 7.99986,11.695632 v -5.707132 c 4.31766,1.855419 4.96367,5.48456 5.07622,12.130211 -0.4599,19.090628 -2.53331,8.633768 -3.00473,58.870488 l -5.35927,-2.5046 c -0.32547,-8.85809 0.53893,-19.04173 -5.32093,-26.3085 -5.053,-5.96127 -12.02788,-7.68099 -16.80425,-9.24746 0.2722,1.34326 1.18115,2.67804 0,5.39323 -3.17718,-4.55655 -7.4918,-6.32064 -13.34469,-8.94755 -4.51262,-1.893993 -15.70522,-3.584377 -20.656857,-2.719027 0.87226,1.057168 1.34964,2.081715 1.58507,5.033317 -8.078622,-10.059736 -20.609412,-7.839763 -25.572832,-7.388824 0,0 1.02597,0.778164 1.00157,2.508104 -7.34155,-0.533312 -11.64343,1.397796 -14.68981,5.35244 -5.51395,7.53261 -2.43587,21.34544 -4.09678,35.87913 l -5.57928,-0.834 C 48.075714,127.20031 48.74343,117.96355 48.74343,117.96355 l -1.669296,2.89344 c 0,0 -5.675604,-6.89975 -6.120749,-20.81055 -0.445145,-9.570626 2.559305,-17.107689 2.559305,-17.107689 -1.198049,-1.656287 -1.774863,-0.913891 -3.080105,-0.497846 1.25659,-4.990008 5.576794,-12.247607 9.828366,-16.057535 5.0291,-4.345745 9.9845,-6.900124 13.33071,-7.543213 -1.1288,-1.534305 -2.68697,-2.2371 -3.73954,-2.43905 3.79983,-2.664664 13.45278,-5.256724 17.83876,-5.75289 5.9816,-0.567575 11.88399,-0.674102 17.197112,0.01967"
         id="path18001" /></g>
		 <g
       id="layer3"
       style="display:inline;stroke:none">
	   <g
         id="g22313"
         style="display:inline;stroke:#ffffff;stroke-width:2.2;stroke-dasharray:none;stroke-opacity:1"
         transform="translate(0,-0.52916663)">
		 <path
           style="fill:#151515;stroke:#ffffff;stroke-width:2.2;stroke-linecap:round;stroke-linejoin:round;stroke-dasharray:none;stroke-opacity:1;paint-order:stroke fill markers;stop-color:#151515"
           d="m 105,181.97962 c -2.64236,-3.28063 -4.42251,-5.79212 -10.228216,-6.00666 -7.205629,-0.25729 -16.403278,12.52041 -27.141217,11.51277 -5.834406,-0.79152 -6.417953,-2.5735 -8.676289,-4.39376 0.767157,4.77057 3.488256,9.65352 9.121227,13.12567 8.176824,3.54091 17.008146,1.90657 24.555818,-2.75387 -0.367578,1.38159 -0.358509,2.53749 0.138239,3.1988 3.743806,-5.09685 7.845968,-3.58158 12.230438,-4.44938 z"
           id="path22309" />
		   <path
           style="fill:#151515;stroke:#ffffff;stroke-width:2.2;stroke-linecap:round;stroke-linejoin:round;stroke-dasharray:none;stroke-opacity:1;paint-order:stroke fill markers;stop-color:#151515"
           d="m 105,181.97962 c 2.64236,-3.28063 4.42251,-5.79212 10.22822,-6.00666 7.20563,-0.25729 16.40327,12.52041 27.14121,11.51277 5.83441,-0.79152 6.41795,-2.5735 8.67629,-4.39376 -0.76716,4.77057 -3.48826,9.65352 -9.12123,13.12567 -8.17682,3.54091 -17.00814,1.90657 -24.55581,-2.75387 0.36757,1.38159 0.35851,2.53749 -0.13824,3.1988 -3.74381,-5.09685 -7.84597,-3.58158 -12.23044,-4.44938 z"
           id="path22311" /></g>
		   <g
         id="g3071"
         style="display:inline">
		 <path
           style="vector-effect:non-scaling-stroke;fill:#151515;stroke:none;stroke-width:0.264583;stroke-linecap:round;stroke-linejoin:round;stroke-dasharray:none;-inkscape-stroke:hairline;paint-order:stroke fill markers;stop-color:#151515"
           d="m 105,181.97962 c -2.64236,-3.28063 -4.42251,-5.79212 -10.228216,-6.00666 -7.205629,-0.25729 -16.403278,12.52041 -27.141217,11.51277 -5.834406,-0.79152 -6.417953,-2.5735 -8.676289,-4.39376 0.767157,4.77057 3.488256,9.65352 9.121227,13.12567 8.176824,3.54091 17.008146,1.90657 24.555818,-2.75387 -0.367578,1.38159 -0.358509,2.53749 0.138239,3.1988 3.743806,-5.09685 7.845968,-3.58158 12.230438,-4.44938 z"
           id="path1674" />
		   <path
           style="vector-effect:non-scaling-stroke;fill:#151515;stroke:none;stroke-width:0.264583;stroke-linecap:round;stroke-linejoin:round;stroke-dasharray:none;-inkscape-stroke:hairline;paint-order:stroke fill markers;stop-color:#151515"
           d="m 105,181.97962 c 2.64236,-3.28063 4.42251,-5.79212 10.22822,-6.00666 7.20563,-0.25729 16.40327,12.52041 27.14121,11.51277 5.83441,-0.79152 6.41795,-2.5735 8.67629,-4.39376 -0.76716,4.77057 -3.48826,9.65352 -9.12123,13.12567 -8.17682,3.54091 -17.00814,1.90657 -24.55581,-2.75387 0.36757,1.38159 0.35851,2.53749 -0.13824,3.1988 -3.74381,-5.09685 -7.84597,-3.58158 -12.23044,-4.44938 z"
           id="path3067" /></g>
		   <g
         id="g3205"
         transform="matrix(2.3998933,0,0,2.3998933,911.66725,-122.24888)"
         style="display:none">
		 <path
           style="vector-effect:non-scaling-stroke;fill:#151515;stroke:none;stroke-width:0.264583;stroke-linecap:round;stroke-linejoin:round;stroke-dasharray:none;-inkscape-stroke:hairline;paint-order:stroke fill markers;stop-color:#151515"
           d="m -336.45205,127.17027 c -0.62472,-1.83179 -2.54592,-2.06623 -6.24631,-1.08685 -3.35916,1.31896 -2.76949,3.67401 -7.15756,5.0339 -2.44855,0.10874 -3.34169,-0.43821 -5.03391,-2.91022 0.63704,2.45753 1.2565,3.93323 5.39064,5.22297 3.7529,0.91949 6.73548,0.0352 7.61996,-0.49974 2.57407,-1.77512 3.98945,-3.86496 5.42718,-5.76006 z"
           id="path3136" />
		   <path
           style="vector-effect:non-scaling-stroke;fill:#151515;stroke:none;stroke-width:0.264583;stroke-linecap:round;stroke-linejoin:round;stroke-dasharray:none;-inkscape-stroke:hairline;paint-order:stroke fill markers;stop-color:#151515"
           d="m -335.83983,127.17027 c 0.62472,-1.83179 2.54592,-2.06623 6.24631,-1.08685 3.35916,1.31896 2.76949,3.67401 7.15756,5.0339 2.44855,0.10874 3.34169,-0.43821 5.03391,-2.91022 -0.63704,2.45753 -1.2565,3.93323 -5.39064,5.22297 -3.7529,0.91949 -6.73548,0.0352 -7.61996,-0.49974 -2.57407,-1.77512 -3.98945,-3.86496 -5.42718,-5.76006 z"
           id="path3201" /></g>
		   <g
         id="g5521"
         transform="matrix(3.7206572,0,0,3.7206572,1147.7762,-288.01851)"
         style="display:none;fill:#151515">
		 <path
           style="vector-effect:non-scaling-stroke;fill:#151515;stroke:none;stroke-width:0.264583;stroke-linecap:round;stroke-linejoin:round;stroke-dasharray:none;-inkscape-stroke:hairline;paint-order:stroke fill markers;stop-color:#151515"
           d="m -289.64577,129.34759 c 2.04829,-0.38448 4.91898,-1.18627 7.07891,-0.72755 1.23042,0.32969 1.66777,0.15218 1.80905,0.0197 0.24921,-0.21136 0.49163,-1.32187 0.15732,-2.00569 -0.2724,-0.52831 -1.02938,-0.75543 -2.0057,-0.66857 -3.60412,0.56845 -5.26653,1.99989 -7.03958,3.38215 z"
           id="path5517" />
		   <path
           style="vector-effect:non-scaling-stroke;fill:#151515;stroke:none;stroke-width:0.264583;stroke-linecap:round;stroke-linejoin:round;stroke-dasharray:none;-inkscape-stroke:hairline;paint-order:stroke fill markers;stop-color:#151515"
           d="m -270.91198,129.34759 c -2.04829,-0.38448 -4.91898,-1.18627 -7.07891,-0.72755 -1.23042,0.32969 -1.66777,0.15218 -1.80905,0.0197 -0.24921,-0.21136 -0.49163,-1.32187 -0.15732,-2.00569 0.2724,-0.52831 1.02938,-0.75543 2.0057,-0.66857 3.60412,0.56845 5.26653,1.99989 7.03958,3.38215 z"
           id="path5519" /></g></g>
		   <g
       id="layer6"
       style="stroke:none">
	   <g
         id="g21518">
		 <path
           id="path15443"
           style="vector-effect:non-scaling-stroke;fill:#151515;stroke:none;stroke-width:0.394523;stroke-linecap:round;stroke-linejoin:round;stroke-dasharray:none;-inkscape-stroke:hairline;paint-order:stroke fill markers;stop-color:#151515"
           d="m 121.08878,125.75356 c -7.94074,0 -14.37797,8.26987 -14.37793,18.47123 -3e-5,10.20136 6.43719,18.66794 14.37793,18.66795 4.11592,-0.001 16.47431,1.36886 23.38565,-6.76894 4.85455,-6.19573 6.73962,-13.30385 7.73441,-19.49958 0.0903,-0.30011 -0.0588,0.30755 0,0 h 3.85868 v -1.34566 h -3.71502 c 0.005,-0.0964 0.009,-0.19287 0.0109,-0.28938 -2.2e-4,-3.22401 -1.71369,-6.21455 -4.52066,-7.88996 h 8.22482 v -1.34566 z"
           transform="translate(-51.067732)" />
		   <path
           id="ellipse15449"
           style="vector-effect:non-scaling-stroke;fill:#ffffff;stroke:none;stroke-width:0.33139;stroke-linecap:round;stroke-linejoin:round;stroke-dasharray:none;-inkscape-stroke:hairline;paint-order:stroke fill markers;stop-color:#151515"
           d="m 70.021049,129.18488 a 11.707063,15.039906 0 0 0 -11.706779,15.03991 11.707063,15.039906 0 0 0 0.163814,2.46186 17.608913,16.653078 0 0 1 15.948898,-16.39641 11.707063,15.039906 0 0 0 -4.405933,-1.10536 z" />
		   <path
           id="path15506"
           style="vector-effect:non-scaling-stroke;fill:#151515;stroke:none;stroke-width:0.394523;stroke-linecap:round;stroke-linejoin:round;stroke-dasharray:none;-inkscape-stroke:hairline;paint-order:stroke fill markers;stop-color:#151515"
           d="m 139.97861,125.75356 c 7.94074,0 14.37797,8.26987 14.37793,18.47123 3e-5,10.20136 -6.43719,18.66794 -14.37793,18.66795 -4.11592,-0.001 -16.47431,1.36886 -23.38565,-6.76894 -4.85455,-6.19573 -6.73962,-13.30385 -7.73441,-19.49958 -0.0903,-0.30011 0.0588,0.30755 0,0 h -3.85868 v -1.34566 h 3.71502 c -0.005,-0.0964 -0.009,-0.19287 -0.0109,-0.28938 2.2e-4,-3.22401 1.71369,-6.21455 4.52066,-7.88996 h -8.22482 v -1.34566 z" /><rect
           style="vector-effect:non-scaling-stroke;fill:#151515;stroke:none;stroke-width:0.264583;stroke-linecap:round;stroke-linejoin:round;stroke-dasharray:none;-inkscape-stroke:hairline;paint-order:stroke fill markers;stop-color:#151515"
           id="rect15666"
           width="20.381058"
           height="3.3789346"
           x="94.809296"
           y="134.11472" />
		   <path
           id="path15508"
           style="vector-effect:non-scaling-stroke;fill:#ffffff;stroke:none;stroke-width:0.228464;stroke-linecap:round;stroke-linejoin:round;stroke-dasharray:none;-inkscape-stroke:hairline;paint-order:stroke fill markers;stop-color:#151515"
           d="m 120.75975,128.80735 a 9.0330818,9.2643131 80.042513 0 0 -7.37941,10.62167 9.0330818,9.2643131 80.042513 0 0 0.40836,1.42713 10.002032,13.934612 79.143279 0 1 10.52085,-12.05685 9.0330818,9.2643131 80.042513 0 0 -3.5498,0.008 z" /><rect
           style="vector-effect:non-scaling-stroke;fill:#151515;stroke:none;stroke-width:0.264583;stroke-linecap:round;stroke-linejoin:round;stroke-dasharray:none;-inkscape-stroke:hairline;paint-order:stroke fill markers;stop-color:#151515"
           id="rect15664"
           width="20.381058"
           height="3.3789346"
           x="94.809296"
           y="125.75356" />
		   </g>
		   </g>
		   </g>
		   </svg>
