<svg xmlns="http://www.w3.org/2000/svg" xml:space="preserve" id="svg1279" width="210mm" height="297mm" version="1.1" viewBox="0 0 210 297">
  <g id="DESIGN">
    <g id="head_group" style="display:inline" transform="translate(174.625)">
      <path id="path14504" d="M-69.625 71.037a52.5 50.384 0 0 0-52.5 50.381 52.5 50.384 0 0 0 .213 4.332c.977 19.854 1.816 36.83 5.95 66.148 1.344 8.498 9.848 20.012 19.48 30.423 6.132 6.297 16.364 16.152 26.857 16.396 10.493-.244 20.728-10.099 26.86-16.396 9.632-10.411 18.133-21.925 19.477-30.423 4.134-29.318 4.973-46.294 5.95-66.148a52.5 50.384 0 0 0 .213-4.332 52.5 50.384 0 0 0-52.5-50.38z" style="vector-effect:non-scaling-stroke;fill:#fff;stroke:#000;stroke-width:1.60267;stroke-linecap:round;stroke-linejoin:round;stroke-dasharray:none;-inkscape-stroke:hairline;paint-order:stroke fill markers;stop-color:#000"/>
    </g>
    <g id="beard_group" style="display:inline;stroke:#fff;stroke-width:2.2;stroke-dasharray:none;stroke-opacity:1">
      <path id="path20520" d="M50.301 138.217c-1.416 18.414-1.335 30.716-1.335 30.716s1.884-.329 2.67.222c0 0-1.361 19.606-.575 28.341 1.023 10.623 5.917 19.957 5.917 19.957s.81-.993 2.226-1.78c4.282 8.484 10.154 16.12 17.584 22.925 0 0-.185-2.981.444-5.342 8.63 10.142 17.878 15.759 27.768 16.668 9.89-.91 19.137-6.526 27.767-16.668.63 2.36.445 5.342.445 5.342 7.43-6.806 13.302-14.44 17.583-22.925 1.417.787 2.226 1.78 2.226 1.78s4.894-9.334 5.917-19.957c.787-8.735-.575-28.341-.575-28.341.787-.55 2.67-.222 2.67-.222s.082-12.302-1.335-30.716l-5.58.834s3.243 17.863-.763 27.433c-2.114 3.895-4.897 3.561-11.129 5.787-4.785 2.115-7.345 8.347-7.011 12.019.334 6.343.112 13.02-7.233 19.586-2.671 1.892-7.234 4.34-11.908 2.672-4.093-1.608-4.953-2.337-11.074-2.226-6.121-.111-6.982.618-11.074 2.226-4.674 1.669-9.237-.78-11.908-2.672-7.345-6.565-7.567-13.243-7.233-19.586.333-3.672-2.226-9.904-7.011-12.019-6.232-2.226-9.015-1.892-11.13-5.787-4.006-9.57-.763-27.433-.763-27.433z" style="vector-effect:non-scaling-stroke;fill:#000;stroke:none;stroke-width:.264583;stroke-linecap:round;stroke-linejoin:round;stroke-dasharray:none;-inkscape-stroke:hairline;paint-order:stroke fill markers;stop-color:#000"/>
    </g>
    <g id="mustache_group" style="display:inline;stroke:none">
      <g id="mustache_01_white" style="display:inline;stroke:#fff;stroke-width:2.2;stroke-dasharray:none;stroke-opacity:1" transform="translate(0 -.53)">
        <path id="path22309" d="M105 181.98c-2.642-3.281-4.423-5.792-10.228-6.007-7.206-.257-16.403 12.52-27.141 11.513-5.835-.792-6.418-2.574-8.677-4.394.767 4.77 3.489 9.653 9.122 13.126 8.176 3.54 17.008 1.906 24.555-2.754-.367 1.381-.358 2.537.139 3.199 3.743-5.097 7.846-3.582 12.23-4.45z" style="fill:#000;stroke:#fff;stroke-width:2.2;stroke-linecap:round;stroke-linejoin:round;stroke-dasharray:none;stroke-opacity:1;paint-order:stroke fill markers;stop-color:#000"/>
        <path id="path22311" d="M105 181.98c2.642-3.281 4.423-5.792 10.228-6.007 7.206-.257 16.403 12.52 27.141 11.513 5.835-.792 6.418-2.574 8.677-4.394-.767 4.77-3.489 9.653-9.122 13.126-8.176 3.54-17.008 1.906-24.555-2.754.367 1.381.358 2.537-.139 3.199-3.743-5.097-7.846-3.582-12.23-4.45z" style="fill:#000;stroke:#fff;stroke-width:2.2;stroke-linecap:round;stroke-linejoin:round;stroke-dasharray:none;stroke-opacity:1;paint-order:stroke fill markers;stop-color:#000"/>
      </g>
      <g id="mustache_01" style="display:inline">
        <path id="path1674" d="M105 181.98c-2.642-3.281-4.423-5.792-10.228-6.007-7.206-.257-16.403 12.52-27.141 11.513-5.835-.792-6.418-2.574-8.677-4.394.767 4.77 3.489 9.653 9.122 13.126 8.176 3.54 17.008 1.906 24.555-2.754-.367 1.381-.358 2.537.139 3.199 3.743-5.097 7.846-3.582 12.23-4.45z" style="vector-effect:non-scaling-stroke;fill:#000;stroke:none;stroke-width:.264583;stroke-linecap:round;stroke-linejoin:round;stroke-dasharray:none;-inkscape-stroke:hairline;paint-order:stroke fill markers;stop-color:#000"/>
        <path id="path3067" d="M105 181.98c2.642-3.281 4.423-5.792 10.228-6.007 7.206-.257 16.403 12.52 27.141 11.513 5.835-.792 6.418-2.574 8.677-4.394-.767 4.77-3.489 9.653-9.122 13.126-8.176 3.54-17.008 1.906-24.555-2.754.367 1.381.358 2.537-.139 3.199-3.743-5.097-7.846-3.582-12.23-4.45z" style="vector-effect:non-scaling-stroke;fill:#000;stroke:none;stroke-width:.264583;stroke-linecap:round;stroke-linejoin:round;stroke-dasharray:none;-inkscape-stroke:hairline;paint-order:stroke fill markers;stop-color:#000"/>
      </g>
      <g id="m2" style="display:none" transform="matrix(2.3999 0 0 2.3999 911.667 -122.249)">
        <path id="path3136" d="M-336.452 127.17c-.625-1.832-2.546-2.066-6.246-1.087-3.36 1.32-2.77 3.674-7.158 5.034-2.448.11-3.342-.438-5.034-2.91.637 2.458 1.257 3.933 5.39 5.223 3.754.92 6.736.035 7.62-.5 2.575-1.775 3.99-3.865 5.428-5.76z" style="vector-effect:non-scaling-stroke;fill:#000;stroke:none;stroke-width:.264583;stroke-linecap:round;stroke-linejoin:round;stroke-dasharray:none;-inkscape-stroke:hairline;paint-order:stroke fill markers;stop-color:#000"/>
        <path id="path3201" d="M-335.84 127.17c.625-1.832 2.546-2.066 6.246-1.087 3.36 1.32 2.77 3.674 7.158 5.034 2.449.11 3.342-.438 5.034-2.91-.637 2.458-1.257 3.933-5.39 5.223-3.754.92-6.736.035-7.62-.5-2.575-1.775-3.99-3.865-5.428-5.76z" style="vector-effect:non-scaling-stroke;fill:#000;stroke:none;stroke-width:.264583;stroke-linecap:round;stroke-linejoin:round;stroke-dasharray:none;-inkscape-stroke:hairline;paint-order:stroke fill markers;stop-color:#000"/>
      </g>
      <g id="m3" style="display:none;fill:#000" transform="matrix(3.72066 0 0 3.72066 1147.776 -288.019)">
        <path id="path5517" d="M-289.646 129.348c2.049-.385 4.92-1.187 7.08-.728 1.23.33 1.667.152 1.808.02.25-.212.492-1.322.158-2.006-.273-.528-1.03-.755-2.006-.669-3.604.569-5.267 2-7.04 3.383z" style="vector-effect:non-scaling-stroke;fill:#000;stroke:none;stroke-width:.264583;stroke-linecap:round;stroke-linejoin:round;stroke-dasharray:none;-inkscape-stroke:hairline;paint-order:stroke fill markers;stop-color:#000"/>
        <path id="path5519" d="M-270.912 129.348c-2.048-.385-4.919-1.187-7.079-.728-1.23.33-1.668.152-1.809.02-.25-.212-.492-1.322-.157-2.006.272-.528 1.03-.755 2.005-.669 3.605.569 5.267 2 7.04 3.383z" style="vector-effect:non-scaling-stroke;fill:#000;stroke:none;stroke-width:.264583;stroke-linecap:round;stroke-linejoin:round;stroke-dasharray:none;-inkscape-stroke:hairline;paint-order:stroke fill markers;stop-color:#000"/>
      </g>
    </g>
    <g id="glasses_group" style="stroke:none">
      <g id="glasses-01">
        <path id="path15443" d="M121.089 125.754c-7.941 0-14.378 8.27-14.378 18.47 0 10.202 6.437 18.669 14.378 18.669 4.116-.001 16.474 1.369 23.385-6.77 4.855-6.195 6.74-13.303 7.735-19.499.09-.3-.059.308 0 0h3.859v-1.345h-3.716c.005-.097.01-.193.011-.29 0-3.224-1.713-6.214-4.52-7.89h8.225v-1.345z" style="vector-effect:non-scaling-stroke;fill:#000;stroke:none;stroke-width:.394523;stroke-linecap:round;stroke-linejoin:round;stroke-dasharray:none;-inkscape-stroke:hairline;paint-order:stroke fill markers;stop-color:#000" transform="translate(-51.068)"/>
        <path id="ellipse15449" d="M70.021 129.185a11.707 15.04 0 0 0-11.707 15.04 11.707 15.04 0 0 0 .164 2.462 17.609 16.653 0 0 1 15.949-16.397 11.707 15.04 0 0 0-4.406-1.105z" style="vector-effect:non-scaling-stroke;fill:#fff;stroke:none;stroke-width:.33139;stroke-linecap:round;stroke-linejoin:round;stroke-dasharray:none;-inkscape-stroke:hairline;paint-order:stroke fill markers;stop-color:#000"/>
        <path id="path15506" d="M139.979 125.754c7.94 0 14.378 8.27 14.378 18.47 0 10.202-6.438 18.669-14.378 18.669-4.116-.001-16.475 1.369-23.386-6.77-4.855-6.195-6.74-13.303-7.734-19.499-.09-.3.058.308 0 0h-3.86v-1.345h3.716a9.012 9.012 0 0 1-.011-.29c0-3.224 1.714-6.214 4.52-7.89H105v-1.345z" style="vector-effect:non-scaling-stroke;fill:#000;stroke:none;stroke-width:.394523;stroke-linecap:round;stroke-linejoin:round;stroke-dasharray:none;-inkscape-stroke:hairline;paint-order:stroke fill markers;stop-color:#000"/>
        <path id="rect15666" d="M94.809 134.115h20.381v3.379H94.809z" style="vector-effect:non-scaling-stroke;fill:#000;stroke:none;stroke-width:.264583;stroke-linecap:round;stroke-linejoin:round;stroke-dasharray:none;-inkscape-stroke:hairline;paint-order:stroke fill markers;stop-color:#000"/>
        <path id="path15508" d="M120.76 128.807a9.033 9.264 80.043 0 0-7.38 10.622 9.033 9.264 80.043 0 0 .409 1.427 10.002 13.935 79.143 0 1 10.52-12.057 9.033 9.264 80.043 0 0-3.55.008z" style="vector-effect:non-scaling-stroke;fill:#fff;stroke:none;stroke-width:.228464;stroke-linecap:round;stroke-linejoin:round;stroke-dasharray:none;-inkscape-stroke:hairline;paint-order:stroke fill markers;stop-color:#000"/>
        <path id="rect15664" d="M94.809 125.754h20.381v3.379H94.809z" style="vector-effect:non-scaling-stroke;fill:#000;stroke:none;stroke-width:.264583;stroke-linecap:round;stroke-linejoin:round;stroke-dasharray:none;-inkscape-stroke:hairline;paint-order:stroke fill markers;stop-color:#000"/>
      </g>
    </g>
    <g id="hair_group">
      <path id="hair-01" d="M94.888 50.668c-.287-2.416-1.68-2.617-2.743-3.483 6.029-.708 19.656.676 25.15 2.226 7.127 2.15 12.38 4.505 16.249 8.235.667-1.784.246-3.104-.16-4.095 4.308 1.724 12.54 8.364 15.684 11.461 4.03 4.114 6.725 7.682 8 11.696V71c4.318 1.855 4.964 5.484 5.076 12.13-.46 19.09-2.533 8.634-3.004 58.87l-5.36-2.504c-.325-8.858.54-19.042-5.32-26.309-5.054-5.961-12.029-7.68-16.805-9.247.272 1.343 1.181 2.678 0 5.393-3.177-4.556-7.492-6.32-13.345-8.947-4.512-1.894-15.705-3.585-20.656-2.72.872 1.058 1.35 2.082 1.585 5.034-8.079-10.06-20.61-7.84-25.573-7.389 0 0 1.026.778 1.001 2.508-7.341-.533-11.643 1.398-14.69 5.353-5.513 7.532-2.435 21.345-4.096 35.879l-5.58-.834c-2.225-11.018-1.558-20.254-1.558-20.254l-1.669 2.893s-5.675-6.9-6.12-20.81c-.446-9.571 2.559-17.108 2.559-17.108-1.198-1.657-1.775-.914-3.08-.498 1.256-4.99 5.576-12.248 9.828-16.058 5.03-4.345 9.984-6.9 13.33-7.543-1.128-1.534-2.686-2.237-3.739-2.439 3.8-2.665 13.453-5.257 17.839-5.753 5.981-.567 11.884-.674 17.197.02" style="vector-effect:non-scaling-stroke;fill:#000;stroke:none;stroke-width:.264583;stroke-linecap:round;stroke-linejoin:round;stroke-dasharray:none;-inkscape-stroke:hairline;paint-order:stroke fill markers;stop-color:#000"/>
    </g>
  </g>
</svg>
