<?xml version="1.0" encoding="UTF-8" standalone="no"?>
<!-- Created with Inkscape (http://www.inkscape.org/) -->

<svg
   width="109.72849mm"
   height="42.877922mm"
   viewBox="0 0 109.72848 42.877922"
   version="1.1"
   id="svg1232"
   xmlns="http://www.w3.org/2000/svg"
   xmlns:svg="http://www.w3.org/2000/svg">
  <defs
     id="defs1229" />
  <g
     aria-label="Raw"
     id="text48862-02-6"
     style="font-size:96px;font-family:'Bebas Neue';-inkscape-font-specification:'Bebas Neue, Normal';vector-effect:non-scaling-stroke;fill:#ff8200;stroke-linecap:round;stroke-linejoin:round;-inkscape-stroke:hairline;stop-color:#000000"
     transform="matrix(0.50026083,0,0,0.50026083,-951.16556,-754.18709)">
    <path
       id="path6245"
       style="color:#000000;-inkscape-font-specification:'Bebas Neue, Normal';opacity:0;fill:#151515;stroke-width:22.6019;stroke-linecap:square;stroke-linejoin:miter;-inkscape-stroke:none"
       d="m 1901.3403,1507.5875 v 74.4104 11.3009 h 219.3409 v -85.7113 z" />
    <path
       id="path6251"
       style="color:#000000;-inkscape-font-specification:'Bebas Neue, Normal';fill:#151515;stroke-width:18.5112;stroke-linecap:square;stroke-linejoin:miter;-inkscape-stroke:none"
       d="m 1901.3403,1507.5875 v 76.4557 9.2556 h 142.4472 v -85.7113 z" />
    <path
       d="m 1983.9387,1516.8433 h 10.176 l 4.704,51.648 h 0.192 l 4.992,-51.648 h 11.52 l 4.992,51.648 h 0.192 l 4.704,-51.648 h 9.12 l -6.816,67.2 h -13.152 l -4.8,-45.312 h -0.192 l -4.8,45.312 h -14.016 z"
       id="path1394" />
    <path
       d="m 1957.4429,1516.8433 h 14.304 l 10.944,67.2 h -10.56 l -1.92,-13.344 v 0.192 h -12 l -1.92,13.152 h -9.792 z m 11.52,44.928 -4.704,-33.216 h -0.192 l -4.608,33.216 z"
       id="path1392" />
    <path
       d="m 1910.5949,1516.8433 h 15.648 q 8.16,0 11.904,3.84 3.744,3.744 3.744,11.616 v 4.128 q 0,10.464 -6.912,13.248 v 0.192 q 3.84,1.152 5.376,4.704 1.632,3.552 1.632,9.504 v 11.808 q 0,2.88 0.192,4.704 0.192,1.728 0.96,3.456 h -10.752 q -0.576,-1.632 -0.768,-3.072 -0.192,-1.44 -0.192,-5.184 v -12.288 q 0,-4.608 -1.536,-6.432 -1.44,-1.824 -5.088,-1.824 h -3.648 v 28.8 h -10.56 z m 14.4,28.8 q 3.168,0 4.704,-1.632 1.632,-1.632 1.632,-5.472 v -5.184 q 0,-3.648 -1.344,-5.28 -1.248,-1.632 -4.032,-1.632 h -4.8 v 19.2 z"
       id="path1390" />
  </g>
</svg>
